<?xml version="1.0" encoding="utf-8"?>
<svg viewBox="0 0 500 500" xmlns="http://www.w3.org/2000/svg" xmlns:bx="https://boxy-svg.com">
  <path style="stroke: rgb(0, 0, 0); fill: rgb(84, 78, 73); stroke-opacity: 0;" d="M 257.141 139.204 C 257.141 139.204 253.24793381042923 147.17567065365685 249.537 148.48 C 244.50293285377361 150.24938793460325 233.1846517845088 142.0505580679267 227.941 143.919 C 223.756087167262 145.410187237463 219.19087875071452 151.10613370406608 219.122 154.868 C 219.05086667399692 158.75300167080994 224.1934735814772 163.35225135750895 228.094 166.882 C 232.60503079185358 170.96421945073016 243.8144591761995 172.38409260526663 245.278 177.223 C 246.80040715558437 182.25653724279624 241.57061732442764 195.03893129641799 236.002 196.842 C 227.97193776386106 199.44206264791885 204.86818851691118 172.8068438878375 196.462 175.094 C 190.79257052189817 176.63653860203453 184.7924905611865 186.5732937542535 185.968 192.735 C 187.8260970504339 202.47464803925175 223.99517570554977 214.08646422577232 226.573 224.063 C 228.16459475169688 230.22269133837491 223.76355180185095 240.4654711056392 218.817 242.009 C 211.09176475188002 244.41959313616115 190.6833802247163 219.3477605204872 178.364 216.764 C 169.3805321669322 214.8798849633053 157.1519163936011 216.13895340091943 153.272 220.414 C 150.19127548986228 223.80846511308565 149.56862213348913 231.46652194755913 152.511 236.382 C 157.87150076299744 245.33714615933812 198.92456925396027 249.1337425054042 200.416 259.193 C 202.0028808961786 269.89604041290727 160.10393328285357 287.26033766154694 156.009 299.642 C 153.56567873899183 307.02975866381985 155.8652330137435 316.52905593295446 160.115 320.629 C 164.45734312205445 324.81825648815993 174.36156814707533 326.79488896188536 182.166 324.127 C 195.28071338731812 319.6438294446438 212.71332001132953 283.25963452048137 225.357 278.199 C 232.3878259417337 275.3849110243128 237.07213506781565 277.896901838928 244.823 279.264 C 256.9439321346183 281.40189095497044 280.90106105729416 296.3986080398048 290.446 293.103 C 296.60824980795155 290.9753425961892 302.78763900624017 281.81118716908117 301.852 276.831 C 300.7204931705954 270.80825430861165 286.15848460021533 265.01667313168946 277.671 260.71 C 269.36143097846116 256.4936038206098 254.48768567608158 256.44263492133234 251.514 251.129 C 249.25081430472136 247.08494697831728 250.69907172003477 238.66354083504604 254.708 235.313 C 261.31362846768116 229.79221579622245 290.08547013569984 239.24937495473043 298.506 234.401 C 303.65482792809576 231.43640646787182 307.22749555421495 224.9143171098069 307.022 220.41 C 306.8183514894843 215.94616878084489 302.32701956149754 210.6025782087701 297.442 207.488 C 290.7404282682315 203.21522913030114 271.5818581216071 206.97812405916702 267.786 201.404 C 264.4773199631058 196.54528494614843 267.27007795037105 183.9079962521042 271.74 178.745 C 276.5724350830974 173.16328203141939 293.8573543706287 175.3326397731951 297.289 170.38 C 299.7924996372128 166.76688454037395 299.4238219623416 158.58782400908387 296.681 156.085 C 293.2974775541207 152.99753704065017 278.8702977263288 160.32023057462226 274.934 157.15 C 271.49900174941 154.38350792168066 275.32844858817083 143.74474033815653 272.197 140.797 C 269.2046633756832 137.98021054154873 257.141 139.204 257.141 139.204 C 257.1410000000001 139.204 257.141 139.204 257.141 139.204 C 257.141 139.204 257.141 139.204 257.141 139.204" transform="matrix(0.9999999999999999, 0, 0, 0.9999999999999999, 0, 2.842170943040401e-14)" bx:d="M 257.141 139.204 R 249.537 148.48 R 227.941 143.919 R 219.122 154.868 R 228.094 166.882 R 245.278 177.223 R 236.002 196.842 R 196.462 175.094 R 185.968 192.735 R 226.573 224.063 R 218.817 242.009 R 178.364 216.764 R 153.272 220.414 R 152.511 236.382 R 200.416 259.193 R 156.009 299.642 R 160.115 320.629 R 182.166 324.127 R 225.357 278.199 R 244.823 279.264 R 290.446 293.103 R 301.852 276.831 R 277.671 260.71 R 251.514 251.129 R 254.708 235.313 R 298.506 234.401 R 307.022 220.41 R 297.442 207.488 R 267.786 201.404 R 271.74 178.745 R 297.289 170.38 R 296.681 156.085 R 274.934 157.15 R 272.197 140.797 R 257.141 139.204 R 257.141 139.204 Z 1@69c47eae"/>
</svg>